<svg xmlns="http://www.w3.org/2000/svg" viewBox="0 0 1512 490" style="enable-background:new 0 0 1512 490" xml:space="preserve" preserveAspectRatio="none"><linearGradient id="a" gradientUnits="userSpaceOnUse" x1="38.733" y1="92.768" x2="1528.984" y2="402.674"><stop offset="0" style="stop-color:#ffe564"/><stop offset=".596" style="stop-color:#acc95b"/><stop offset="1" style="stop-color:#78b856"/></linearGradient><path d="M1313.27 6.55c63.77 13.31 122.04 46.05 198.75 86.18v391.49c-92.52 16.97-186.73-9.82-277.78-33.47-91.05-23.65-188.27-44.24-277.87-15.59-38.06 12.17-74.47 33.14-114.43 33.51-54.73.51-101.14-37.06-149.54-62.62-50.46-26.66-108.3-41.3-165.01-34.92-47.77 5.38-92.51 25.12-137.57 41.85-95.46 35.46-198.68 58.31-299.14 41.64-35.78-5.94-74.63-20.06-90.15-52.83l-.56-122.65c39.3 27.09 91.67 30.4 140.22 29.42 49.24-1 100.72-5.7 142.23-32.01 37.81-23.96 71.63-60.54 106.56-88.47 56.85-45.45 134.39-56.99 207.29-53.05 72.89 3.95 144.41 21.56 217.18 27.35 72.76 5.8 150.18-1.59 210.38-42.57 35.11-23.9 62.35-57.86 97.63-81.5 55.21-36.98 126.65-45.35 191.81-31.76z" style="fill:url(#a)"/></svg>